<svg width="25" height="28" viewBox="0 0 25 28" fill="none" xmlns="http://www.w3.org/2000/svg">
<g clip-path="url(#clip0_23_60)">
<path d="M0.524562 12.7641C-0.172982 13.4477 -0.172982 14.5578 0.524562 15.2414L9.45313 23.9914C10.1507 24.675 11.2835 24.675 11.981 23.9914C12.6786 23.3078 12.6786 22.1977 11.981 21.5141L6.09376 15.75H23.2143C24.202 15.75 25 14.968 25 14C25 13.032 24.202 12.25 23.2143 12.25H6.09934L11.9755 6.48595C12.673 5.80236 12.673 4.6922 11.9755 4.00861C11.2779 3.32501 10.1451 3.32501 9.44755 4.00861L0.518982 12.7586L0.524562 12.7641Z" fill="#8A0000"/>
</g>
<defs>
<clipPath id="clip0_23_60">
<rect width="25" height="28" fill="white"/>
</clipPath>
</defs>
</svg>
