<svg width="263" height="66" viewBox="0 0 263 66" fill="none" xmlns="http://www.w3.org/2000/svg">
<ellipse cx="255" cy="46.5" rx="3" ry="4.5" fill="#F2920C"/>
<ellipse cx="246.436" cy="48.2847" rx="3" ry="4.5" transform="rotate(21.4151 246.436 48.2847)" fill="#F2920C"/>
<ellipse cx="250" cy="42" rx="8" ry="5" fill="#F2920C"/>
<ellipse cx="256.5" cy="45.5" rx="2.5" ry="6.5" fill="#F2920C"/>
<ellipse cx="244" cy="50.5" rx="3" ry="14.5" fill="#F2920C"/>
<path d="M240.722 40.7125C240.818 48.6873 241.593 64.63 243.926 64.6018C246.258 64.5737 247.386 56.0144 247.659 51.7383C248.434 48.8803 250.583 44.3537 252.973 49.1105C255.363 53.8672 257.222 52.1926 257.853 50.7607L258.194 38.7926" stroke="#F2920C" stroke-width="2"/>
<ellipse cx="249.5" cy="29.5" rx="11.5" ry="12.5" fill="#F2920C"/>
<path d="M18.1143 3.3256C20.463 3.3256 22.5587 3.66886 24.4015 4.3554C26.2805 5.0058 27.7258 5.94526 28.7375 7.1738C29.7854 8.3662 30.3093 9.73926 30.3093 11.293C30.3093 13.1358 29.7493 14.6534 28.6291 15.8458C27.5451 17.0382 26.1721 17.6344 24.5099 17.6344C23.7511 17.6344 23.3717 17.4176 23.3717 16.984C23.3717 16.8756 23.5163 16.5685 23.8053 16.0626C24.1305 15.5567 24.4015 14.9967 24.6183 14.3824C24.8713 13.732 24.9977 12.9551 24.9977 12.0518C24.9977 10.3535 24.3654 8.98046 23.1007 7.9326C21.8361 6.88473 20.1739 6.3608 18.1143 6.3608C15.4405 6.3608 13.2544 7.19186 11.5561 8.854C9.85786 10.5161 8.62932 12.648 7.87052 15.2496C7.11172 17.8512 6.73232 20.6335 6.73232 23.5964C6.73232 26.6316 7.20206 29.3958 8.14152 31.889C9.11712 34.3822 10.4902 36.3695 12.2607 37.851C14.0313 39.2963 16.0909 40.019 18.4395 40.019C20.7521 40.019 22.7575 39.6035 24.4557 38.7724C26.154 37.9052 27.5451 36.6947 28.6291 35.141C28.7375 34.9965 28.864 34.9242 29.0085 34.9242C29.3337 34.9242 29.6951 35.1049 30.0925 35.4662C30.5261 35.7914 30.7429 36.1166 30.7429 36.4418C30.7429 36.5502 30.6887 36.6947 30.5803 36.8754C27.4729 41.4643 23.2633 43.7588 17.9517 43.7588C14.1939 43.7588 11.0141 42.8735 8.41252 41.103C5.81092 39.3325 3.85972 36.9296 2.55892 33.8944C1.25812 30.8231 0.607724 27.3904 0.607724 23.5964C0.607724 19.7663 1.25812 16.3336 2.55892 13.2984C3.85972 10.2271 5.81092 7.80613 8.41252 6.0356C11.0503 4.22893 14.2842 3.3256 18.1143 3.3256ZM53.8965 38.0136C52.415 40.1093 50.8974 41.5908 49.3437 42.458C47.79 43.3252 46.1098 43.7588 44.3031 43.7588C42.5687 43.7588 40.9608 43.271 39.4793 42.2954C37.9978 41.2837 36.8054 39.7841 35.9021 37.7968C35.0349 35.8095 34.6013 33.4066 34.6013 30.5882C34.6013 27.4807 35.1614 24.7888 36.2815 22.5124C37.4378 20.1999 39.0638 18.4293 41.1595 17.2008C43.2914 15.9723 45.7846 15.358 48.6391 15.358C50.0483 15.358 52.0356 15.5929 54.6011 16.0626C56.7691 16.4239 58.3951 16.6407 59.4791 16.713L60.0753 17.4176L59.4249 18.3932C59.172 18.7545 58.9913 19.0978 58.8829 19.423C58.7745 19.7121 58.7203 20.0734 58.7203 20.507V38.2304C58.7203 39.3505 59.2623 39.9106 60.3463 39.9106C61.2496 39.9106 62.153 39.5854 63.0563 38.935L64.0861 40.3442C63.1466 41.3921 62.1349 42.2231 61.0509 42.8374C59.9669 43.4517 58.9732 43.7588 58.0699 43.7588C56.5884 43.7588 55.5225 43.3071 54.8721 42.4038C54.2217 41.5005 53.8965 40.0371 53.8965 38.0136ZM40.2923 29.5584C40.2923 32.9911 40.8704 35.5204 42.0267 37.1464C43.2191 38.7724 44.7006 39.5854 46.4711 39.5854C47.9164 39.5854 49.2714 39.1879 50.5361 38.393C51.8008 37.5619 52.9209 36.3153 53.8965 34.6532V20.0192C52.2344 18.8991 50.4638 18.339 48.5849 18.339C45.9472 18.339 43.9056 19.3327 42.4603 21.32C41.015 23.2712 40.2923 26.0173 40.2923 29.5584ZM76.2548 23.4338C76.8691 21.0129 77.8086 19.0617 79.0732 17.5802C80.374 16.0987 81.7832 15.358 83.3008 15.358C84.8184 15.358 86.065 15.8639 87.0406 16.8756C88.0524 17.8512 88.5582 19.1881 88.5582 20.8864C88.5582 22.2595 88.0524 23.4157 87.0406 24.3552C86.0289 25.2947 84.7642 25.7644 83.2466 25.7644C82.5601 25.7644 82.2168 25.5657 82.2168 25.1682C82.2168 25.0598 82.3614 24.7888 82.6504 24.3552C82.9756 23.9216 83.2286 23.4699 83.4092 23.0002C83.626 22.5305 83.7344 22.0065 83.7344 21.4284C83.7344 20.778 83.5538 20.2721 83.1924 19.9108C82.8672 19.5133 82.4517 19.3146 81.9458 19.3146C81.0786 19.3146 80.1753 19.8385 79.2358 20.8864C78.3325 21.8981 77.5556 23.5603 76.9052 25.8728C76.2548 28.1492 75.9296 31.0399 75.9296 34.5448C75.9296 36.1708 76.0561 37.4897 76.309 38.5014C76.562 39.477 77.0136 40.4165 77.664 41.3198L78.3144 42.187L77.664 43H68.179L67.5828 41.3198L68.721 41.0488C69.6244 40.832 70.2206 40.4526 70.5096 39.9106C70.8348 39.3325 70.9974 38.3569 70.9974 36.9838V21.7536C70.9974 21.32 70.9071 21.0129 70.7264 20.8322C70.5819 20.6515 70.3109 20.5612 69.9134 20.5612H67.5286L67.0408 19.152C68.0887 18.2125 69.2811 17.4357 70.618 16.8214C71.9911 16.2071 73.1835 15.9 74.1952 15.9C74.7011 15.9 75.1166 16.0626 75.4418 16.3878C75.767 16.713 75.9296 17.1285 75.9296 17.6344V23.4338H76.2548ZM110.267 38.0136C108.785 40.1093 107.268 41.5908 105.714 42.458C104.16 43.3252 102.48 43.7588 100.673 43.7588C98.9388 43.7588 97.3309 43.271 95.8494 42.2954C94.3679 41.2837 93.1755 39.7841 92.2722 37.7968C91.405 35.8095 90.9714 33.4066 90.9714 30.5882C90.9714 27.4807 91.5315 24.7888 92.6516 22.5124C93.8079 20.1999 95.4339 18.4293 97.5296 17.2008C99.6615 15.9723 102.155 15.358 105.009 15.358C106.418 15.358 108.406 15.5929 110.971 16.0626C113.139 16.4239 114.765 16.6407 115.849 16.713L116.445 17.4176L115.795 18.3932C115.542 18.7545 115.361 19.0978 115.253 19.423C115.145 19.7121 115.09 20.0734 115.09 20.507V38.2304C115.09 39.3505 115.632 39.9106 116.716 39.9106C117.62 39.9106 118.523 39.5854 119.426 38.935L120.456 40.3442C119.517 41.3921 118.505 42.2231 117.421 42.8374C116.337 43.4517 115.343 43.7588 114.44 43.7588C112.959 43.7588 111.893 43.3071 111.242 42.4038C110.592 41.5005 110.267 40.0371 110.267 38.0136ZM96.6624 29.5584C96.6624 32.9911 97.2405 35.5204 98.3968 37.1464C99.5892 38.7724 101.071 39.5854 102.841 39.5854C104.287 39.5854 105.642 39.1879 106.906 38.393C108.171 37.5619 109.291 36.3153 110.267 34.6532V20.0192C108.604 18.8991 106.834 18.339 104.955 18.339C102.317 18.339 100.276 19.3327 98.8304 21.32C97.3851 23.2712 96.6624 26.0173 96.6624 29.5584ZM132.3 34.328C132.3 36.0263 132.426 37.3813 132.679 38.393C132.932 39.4047 133.384 40.3803 134.034 41.3198L134.685 42.187L134.034 43H124.549L123.953 41.3198L125.091 41.0488C125.994 40.832 126.591 40.4526 126.88 39.9106C127.205 39.3325 127.368 38.3569 127.368 36.9838V21.7536C127.368 21.32 127.277 21.0129 127.097 20.8322C126.952 20.6515 126.681 20.5612 126.284 20.5612H123.899L123.411 19.152C124.459 18.2125 125.651 17.4357 126.988 16.8214C128.361 16.2071 129.554 15.9 130.565 15.9C131.071 15.9 131.487 16.0626 131.812 16.3878C132.137 16.713 132.3 17.1285 132.3 17.6344V23.4338C133.239 21.049 134.612 19.1159 136.419 17.6344C138.226 16.1168 140.123 15.358 142.11 15.358C144.314 15.358 145.976 16.0084 147.096 17.3092C148.216 18.61 148.867 20.6515 149.048 23.4338C149.987 21.049 151.36 19.1159 153.167 17.6344C154.973 16.1168 156.87 15.358 158.858 15.358C161.279 15.358 163.031 16.1349 164.115 17.6886C165.235 19.2423 165.795 21.7175 165.795 25.114V38.2304C165.795 39.4589 166.337 40.0732 167.421 40.0732C168.252 40.0732 169.156 39.6938 170.131 38.935L171.161 40.3442C170.222 41.3921 169.21 42.2231 168.126 42.8374C167.042 43.4517 166.03 43.7588 165.091 43.7588C163.609 43.7588 162.543 43.3071 161.893 42.4038C161.243 41.5005 160.917 40.0371 160.917 38.0136V25.114C160.917 21.4284 159.58 19.5856 156.907 19.5856C155.389 19.5856 154.052 20.1818 152.896 21.3742C151.739 22.5305 150.818 24.1745 150.132 26.3064C149.445 28.4383 149.084 30.8953 149.048 33.6776V34.328C149.048 36.2069 149.192 37.7065 149.481 38.8266C149.806 39.9106 150.457 41.0307 151.432 42.187L150.782 43H144.17V25.114C144.17 21.4284 142.833 19.5856 140.159 19.5856C138.605 19.5856 137.232 20.1999 136.04 21.4284C134.883 22.6569 133.962 24.3913 133.275 26.6316C132.625 28.8719 132.3 31.4373 132.3 34.328ZM197.904 38.935C196.567 40.4887 194.977 41.6811 193.134 42.5122C191.291 43.3433 189.304 43.7588 187.172 43.7588C184.679 43.7588 182.493 43.1807 180.614 42.0244C178.735 40.8681 177.272 39.2421 176.224 37.1464C175.212 35.0507 174.706 32.6297 174.706 29.8836C174.706 26.9929 175.284 24.4636 176.441 22.2956C177.597 20.0915 179.223 18.3932 181.319 17.2008C183.45 15.9723 185.926 15.358 188.744 15.358C190.731 15.358 192.412 15.7374 193.785 16.4962C195.194 17.2189 196.242 18.1945 196.928 19.423C197.615 20.6154 197.958 21.9162 197.958 23.3254C197.958 24.843 197.542 26.3064 196.711 27.7156C195.916 29.1248 194.742 30.2811 193.188 31.1844C191.635 32.0516 189.774 32.4852 187.606 32.4852C186.45 32.4852 185.167 32.2684 183.758 31.8348C182.348 31.4012 181.644 30.7689 181.644 29.9378C181.644 29.6487 181.716 29.3777 181.861 29.1248C182.041 28.8719 182.24 28.7454 182.457 28.7454C182.565 28.7454 182.927 28.8719 183.541 29.1248C184.155 29.3416 184.95 29.45 185.926 29.45C188.094 29.45 189.774 28.8357 190.966 27.6072C192.195 26.3787 192.809 24.9333 192.809 23.2712C192.809 21.862 192.357 20.6515 191.454 19.6398C190.551 18.5919 189.286 18.068 187.66 18.068C185.347 18.068 183.541 19.0978 182.24 21.1574C180.939 23.1809 180.289 26.0896 180.289 29.8836C180.289 33.0995 180.975 35.6288 182.348 37.4716C183.721 39.2783 185.709 40.1816 188.31 40.1816C191.49 40.1816 194.128 39.1518 196.224 37.0922C196.368 36.9477 196.531 36.8754 196.711 36.8754C197 36.8754 197.308 37.0561 197.633 37.4174C197.958 37.7426 198.121 38.0859 198.121 38.4472C198.121 38.6279 198.048 38.7905 197.904 38.935ZM211.145 38.2304C211.145 39.4589 211.687 40.0732 212.771 40.0732C213.674 40.0732 214.577 39.6938 215.481 38.935L216.51 40.3442C215.571 41.3921 214.559 42.2231 213.475 42.8374C212.391 43.4517 211.38 43.7588 210.44 43.7588C208.959 43.7588 207.893 43.3071 207.242 42.4038C206.592 41.5005 206.267 40.0371 206.267 38.0136V6.4692C206.267 6.0356 206.176 5.72846 205.996 5.5478C205.851 5.36713 205.58 5.2768 205.183 5.2768H202.798L202.31 3.8676C203.358 2.92813 204.55 2.15126 205.887 1.537C207.224 0.92273 208.417 0.615596 209.464 0.615596C209.97 0.615596 210.386 0.778196 210.711 1.1034C211.036 1.4286 211.199 1.84413 211.199 2.35L211.145 38.2304ZM227.5 38.2304C227.5 39.4589 228.042 40.0732 229.126 40.0732C230.029 40.0732 230.933 39.6938 231.836 38.935L232.866 40.3442C231.926 41.3921 230.915 42.2231 229.831 42.8374C228.747 43.4517 227.735 43.7588 226.795 43.7588C225.314 43.7588 224.248 43.3071 223.598 42.4038C222.947 41.5005 222.622 40.0371 222.622 38.0136V6.4692C222.622 6.0356 222.532 5.72846 222.351 5.5478C222.206 5.36713 221.935 5.2768 221.538 5.2768H219.153L218.665 3.8676C219.713 2.92813 220.906 2.15126 222.243 1.537C223.579 0.92273 224.772 0.615596 225.82 0.615596C226.326 0.615596 226.741 0.778196 227.066 1.1034C227.392 1.4286 227.554 1.84413 227.554 2.35L227.5 38.2304Z" fill="black"/>
<path d="M236.105 29.5584C236.105 26.6677 236.629 24.1565 237.676 22.0246C238.76 19.8927 240.296 18.2487 242.283 17.0924C244.307 15.9361 246.656 15.358 249.329 15.358C252.003 15.358 254.334 15.9361 256.321 17.0924C258.309 18.2487 259.844 19.8927 260.928 22.0246C262.012 24.1565 262.554 26.6677 262.554 29.5584C262.554 32.4129 262.012 34.9242 260.928 37.0922C259.844 39.2241 258.309 40.8681 256.321 42.0244C254.334 43.1807 252.003 43.7588 249.329 43.7588C246.656 43.7588 244.307 43.1807 242.283 42.0244C240.296 40.8681 238.76 39.2241 237.676 37.0922C236.629 34.9242 236.105 32.4129 236.105 29.5584ZM256.863 29.721C256.863 28.0227 256.628 26.2883 256.159 24.5178C255.689 22.7473 254.894 21.2477 253.774 20.0192C252.69 18.7907 251.263 18.1764 249.492 18.1764C247.974 18.1764 246.619 18.6642 245.427 19.6398C244.271 20.5793 243.367 21.9162 242.717 23.6506C242.067 25.385 241.741 27.3723 241.741 29.6126C241.741 33.0453 242.41 35.7733 243.747 37.7968C245.084 39.8203 246.89 40.832 249.167 40.832C250.648 40.832 251.967 40.3803 253.123 39.477C254.316 38.5375 255.237 37.2367 255.888 35.5746C256.538 33.8763 256.863 31.9251 256.863 29.721Z" fill="#F2920C"/>
</svg>
