<svg width="27" height="51" viewBox="0 0 27 51" fill="none" xmlns="http://www.w3.org/2000/svg">
<ellipse cx="19" cy="31.5" rx="3" ry="4.5" fill="#F2920C"/>
<ellipse cx="10.4359" cy="33.2847" rx="3" ry="4.5" transform="rotate(21.4151 10.4359 33.2847)" fill="#F2920C"/>
<ellipse cx="14" cy="27" rx="8" ry="5" fill="#F2920C"/>
<ellipse cx="20.5" cy="30.5" rx="2.5" ry="6.5" fill="#F2920C"/>
<ellipse cx="8" cy="35.5" rx="3" ry="14.5" fill="#F2920C"/>
<path d="M4.72172 25.7125C4.8179 33.6873 5.59336 49.63 7.92582 49.6018C10.2583 49.5737 11.3862 41.0144 11.6587 36.7383C12.4342 33.8803 14.5828 29.3537 16.973 34.1105C19.3631 38.8672 21.2221 37.1926 21.8528 35.7607L22.1945 23.7926" stroke="#F2920C" stroke-width="2"/>
<ellipse cx="13.5" cy="14.5" rx="11.5" ry="12.5" fill="#F2920C"/>
<path d="M0.104625 14.5584C0.104625 11.6677 0.628558 9.15647 1.67642 7.0246C2.76042 4.89273 4.29609 3.24867 6.28343 2.0924C8.30689 0.936131 10.6556 0.357997 13.3294 0.357997C16.0033 0.357997 18.3339 0.936131 20.3212 2.0924C22.3086 3.24867 23.8442 4.89273 24.9282 7.0246C26.0122 9.15647 26.5542 11.6677 26.5542 14.5584C26.5542 17.4129 26.0122 19.9242 24.9282 22.0922C23.8442 24.2241 22.3086 25.8681 20.3212 27.0244C18.3339 28.1807 16.0033 28.7588 13.3294 28.7588C10.6556 28.7588 8.30689 28.1807 6.28343 27.0244C4.29609 25.8681 2.76042 24.2241 1.67642 22.0922C0.628558 19.9242 0.104625 17.4129 0.104625 14.5584ZM20.8632 14.721C20.8632 13.0227 20.6284 11.2883 20.1586 9.5178C19.6889 7.74727 18.894 6.24773 17.7738 5.0192C16.6898 3.79066 15.2626 3.1764 13.492 3.1764C11.9744 3.1764 10.6194 3.6642 9.42703 4.6398C8.27076 5.57926 7.36743 6.9162 6.71703 8.6506C6.06663 10.385 5.74142 12.3723 5.74142 14.6126C5.74142 18.0453 6.40989 20.7733 7.74682 22.7968C9.08376 24.8203 10.8904 25.832 13.1668 25.832C14.6483 25.832 15.9672 25.3803 17.1234 24.477C18.3158 23.5375 19.2372 22.2367 19.8876 20.5746C20.538 18.8763 20.8632 16.9251 20.8632 14.721Z" fill="#F2920C"/>
</svg>
