<svg width="50" height="50" viewBox="0 0 50 50" fill="none" xmlns="http://www.w3.org/2000/svg">
<path d="M48.8542 10.1367L43.5886 1.2793C43.12 0.488281 42.2837 0 41.3923 0H8.60407C7.71269 0 6.87644 0.488281 6.40777 1.2793L1.13298 10.1367C-1.58712 14.707 0.820537 21.0645 5.90235 21.7969C6.26993 21.8457 6.6467 21.875 7.01428 21.875C9.41275 21.875 11.5447 20.7617 13.0059 19.043C14.467 20.7617 16.599 21.875 18.9974 21.875C21.3959 21.875 23.5279 20.7617 24.989 19.043C26.4501 20.7617 28.5821 21.875 30.9806 21.875C33.3882 21.875 35.511 20.7617 36.9722 19.043C38.4425 20.7617 40.5653 21.875 42.9637 21.875C43.3405 21.875 43.7081 21.8457 44.0757 21.7969C49.1759 21.0742 51.5927 14.7168 48.8634 10.1367H48.8542ZM44.4524 24.8926H44.4433C43.9562 24.9609 43.46 25 42.9546 25C41.8151 25 40.7215 24.8145 39.7015 24.4824V37.5H10.2949V24.4727C9.26572 24.8145 8.16298 25 7.02347 25C6.51805 25 6.01262 24.9609 5.52558 24.8926H5.51639C5.13962 24.834 4.77204 24.7656 4.41365 24.668V37.5V43.75C4.41365 47.1973 7.05104 50 10.2949 50H39.7015C42.9454 50 45.5828 47.1973 45.5828 43.75V37.5V24.668C45.2152 24.7656 44.8476 24.8438 44.4524 24.8926Z" fill="#8A0000"/>
</svg>
